<?xml version="1.0" standalone="no"?>
<!DOCTYPE svg PUBLIC "-//W3C//DTD SVG 20010904//EN"
 "http://www.w3.org/TR/2001/REC-SVG-20010904/DTD/svg10.dtd">
<svg version="1.0" xmlns="http://www.w3.org/2000/svg"
 width="500.000000pt" height="500.000000pt" viewBox="0 0 500.000000 500.000000"
 preserveAspectRatio="xMidYMid meet">

<g transform="translate(0.000000,500.000000) scale(0.100000,-0.100000)"
fill="#000000" stroke="none">
<path d="M2918 3438 c5 -5 16 -8 23 -6 8 3 3 7 -10 11 -17 4 -21 3 -13 -5z"/>
<path d="M2993 3423 c9 -2 23 -2 30 0 6 3 -1 5 -18 5 -16 0 -22 -2 -12 -5z"/>
<path d="M2776 3038 c4 -7 3 -8 -4 -4 -15 9 -81 -26 -113 -61 -23 -24 -145
-228 -193 -320 -16 -31 -15 -35 3 -71 26 -51 91 -109 160 -140 46 -22 71 -26
136 -26 70 -1 87 3 134 29 29 16 69 48 88 70 35 40 97 143 108 180 3 11 -2 5
-13 -14 -17 -30 -20 -32 -34 -17 -9 8 -18 13 -21 10 -3 -3 -11 11 -18 30 -7
20 -17 36 -21 36 -4 0 -8 6 -8 13 0 8 -11 19 -25 25 -15 7 -22 17 -19 25 3 8
-8 25 -24 39 -23 19 -27 27 -18 41 9 14 7 20 -6 28 -10 6 -18 19 -18 29 0 11
-6 20 -14 20 -13 0 -31 27 -28 43 1 4 -3 7 -9 7 -6 0 -8 8 -5 18 5 13 0 18
-20 20 -17 1 -23 -2 -18 -10z"/>
<path d="M2310 2600 c0 -6 -11 -15 -25 -20 -15 -6 -23 -15 -19 -24 3 -8 1 -17
-5 -21 -7 -3 -11 2 -11 14 0 12 -4 21 -9 21 -5 0 -7 -8 -4 -19 6 -22 -26 -38
-39 -19 -7 12 -12 4 -9 -14 1 -7 -14 -12 -30 -10 -4 1 -5 -7 -2 -17 3 -11 -5
-24 -21 -35 -14 -9 -26 -23 -26 -31 0 -8 -4 -15 -10 -15 -5 0 -10 5 -10 10 0
19 -18 10 -23 -11 -4 -13 -11 -20 -20 -16 -21 8 -40 -8 -54 -45 l-13 -33 5 33
c2 17 0 32 -5 32 -5 0 -10 -10 -12 -22 -6 -42 -31 -31 -84 37 -14 19 -15 19
-3 -5 6 -14 26 -50 44 -80 18 -30 90 -154 160 -275 70 -121 151 -260 180 -310
29 -49 69 -120 89 -158 21 -37 42 -65 46 -62 5 3 24 34 43 68 38 72 233 403
365 622 49 83 86 152 81 153 -5 2 -24 -1 -41 -7 -43 -15 -163 -14 -225 3 -70
19 -157 79 -210 145 -24 31 -47 63 -50 71 -14 35 -53 65 -53 40z"/>
</g>
</svg>
